<?xml version="1.0" encoding="utf-8"?>
<!-- Generator: Adobe Illustrator 25.3.1, SVG Export Plug-In . SVG Version: 6.00 Build 0)  -->
<svg version="1.1" id="Layer_1" xmlns="http://www.w3.org/2000/svg" xmlns:xlink="http://www.w3.org/1999/xlink" x="0px" y="0px"
	 viewBox="0 0 1920 1080" style="enable-background:new 0 0 1920 1080;" xml:space="preserve">
<style type="text/css">
	.st0{fill:#FFFFFF;}
</style>
<g id="Artwork_21" transform="translate(20.033 19.983)">
	<g id="Group_25" transform="translate(-20.033 -19.978)">
		<path id="Path_741" class="st0" d="M939.97,540c0-11.06,8.96-20.04,20.03-20.04c11.06,0,20.04,8.96,20.04,20.03
			c0,11.06-8.96,20.04-20.03,20.04c-0.21,0-0.42,0-0.62-0.01C948.57,559.68,939.98,550.82,939.97,540z M960.03,527.77
			c-3.07,0-6.13,0-9.2,0c-1.6-0.14-3,1.03-3.15,2.63c-0.01,0.16-0.02,0.32,0,0.47c-0.02,6.12-0.02,12.24,0,18.36
			c-0.13,1.59,1.05,2.98,2.63,3.11c0.17,0.01,0.34,0.01,0.51,0c6.13,0.01,12.27,0.01,18.4,0c1.6,0.12,3-1.07,3.13-2.67
			c0.01-0.15,0.01-0.31,0-0.46c0.01-6.09,0.01-12.18,0-18.28c0.13-1.61-1.07-3.03-2.69-3.16c-0.17-0.01-0.34-0.01-0.51,0
			C966.11,527.77,963.07,527.77,960.03,527.77z"/>
		<path id="Path_742" class="st0" d="M967.32,538.17h2.24v1.86c0,2.78,0,5.56,0,8.35c0,0.97-0.15,1.11-1.12,1.11
			c-5.6,0-11.21-0.01-16.81,0.01c-0.7,0-1.14-0.18-1.14-0.96c0-3.34,0.01-6.68,0.01-10.02c0.01-0.12,0.04-0.23,0.08-0.34h2.18
			c-0.61,3.42,0.3,6.25,3.25,8.15c2.36,1.66,5.5,1.7,7.9,0.1C966.93,544.55,967.96,541.71,967.32,538.17z"/>
		<path id="Path_743" class="st0" d="M960.04,544.8c-2.6-0.02-4.69-2.15-4.67-4.75c0.02-2.6,2.15-4.69,4.75-4.67
			c2.58,0.02,4.65,2.11,4.67,4.68C964.77,542.69,962.65,544.8,960.04,544.8z"/>
		<path id="Path_744" class="st0" d="M969.5,533.03c-0.01,2.4,0.26,2.25-2.25,2.24c-2.8-0.01-2.43,0.26-2.44-2.46
			c-0.01-2.47-0.27-2.23,2.24-2.22C969.83,530.61,969.48,530.26,969.5,533.03z"/>
	</g>
</g>
</svg>
