<?xml version="1.0" encoding="utf-8"?>
<!-- Generator: Adobe Illustrator 25.3.1, SVG Export Plug-In . SVG Version: 6.00 Build 0)  -->
<svg version="1.1" id="Layer_1" xmlns="http://www.w3.org/2000/svg" xmlns:xlink="http://www.w3.org/1999/xlink" x="0px" y="0px"
	 viewBox="0 0 1920 1080" style="enable-background:new 0 0 1920 1080;" xml:space="preserve">
<style type="text/css">
	.st0{opacity:0.7;}
	.st1{fill:#FFFFFF;}
</style>
<g id="Artwork_11" transform="translate(212.322 189.766)" class="st0">
	<g id="Group_23" transform="translate(-212.322 -189.766)">
		<path id="Path_735" class="st1" d="M845.09,401.13v277.36l-16.21-7.31l-16.19-7.3l-16.19-7.3l-6.67-3l-9.53-4.3l-16.19-7.3
			l-16.21-7.29V517.91l16.21,7.3l4.33,1.96l11.86,5.34v87.58l16.19,7.3l2.02,0.92l14.18,6.38V415.73l16.19-7.3L845.09,401.13z"/>
		<path id="Path_736" class="st1" d="M958.47,729.58l-16.21-7.3V386.53l-16.19,7.3l-15.35,6.91h-0.84v306.94l-7.82-3.53l-8.37-3.77
			l-16.22-7.31V386.53l16.21-7.3l8.35-3.76l7.84-3.53l32.39-14.59l16.21-7.3V729.58z"/>
		<path id="Path_737" class="st1" d="M1172.54,517.91v116.77l-16.21,7.3l-16.19,7.3l-9.53,4.3l-6.67,3l-16.19,7.3l-16.19,7.3
			l-16.21,7.31V401.13l16.21,7.3l16.19,7.3v218.95l14.18-6.38l2.02-0.92l16.19-7.3v-87.58l11.86-5.34l4.33-1.96L1172.54,517.91z"/>
		<path id="Path_738" class="st1" d="M961.99,350.04l16.19,7.3l32.39,14.6l7.84,3.53l8.35,3.77l16.21,7.3v306.53l-16.21,7.31
			l-8.37,3.77l-7.82,3.53V400.74h-0.84l-15.35-6.92l-16.19-7.3v335.75l-16.19,7.3"/>
	</g>
</g>
</svg>
